<svg width="60" height="60" viewBox="0 0 60 60" fill="none" xmlns="http://www.w3.org/2000/svg">
<circle cx="30" cy="30" r="30" fill="#181818"/>
<path d="M23.556 24.852V21.576C23.556 20.208 22.956 19.524 21.756 19.524C20.532 19.524 19.92 20.208 19.92 21.576V24.852C19.92 26.22 20.532 26.904 21.756 26.904C22.956 26.904 23.556 26.22 23.556 24.852ZM26.94 24.996C26.94 26.556 26.448 27.768 25.464 28.632C24.48 29.496 23.244 29.928 21.756 29.928C20.268 29.928 19.02 29.496 18.012 28.632C17.004 27.768 16.5 26.556 16.5 24.996V21.432C16.5 19.872 17.004 18.66 18.012 17.796C19.02 16.932 20.268 16.5 21.756 16.5C23.244 16.5 24.48 16.932 25.464 17.796C26.448 18.66 26.94 19.872 26.94 21.432V24.996ZM39.9 37.524V34.212C39.9 32.844 39.288 32.16 38.064 32.16C36.84 32.16 36.228 32.844 36.228 34.212V37.524C36.228 38.868 36.84 39.54 38.064 39.54C39.288 39.54 39.9 38.868 39.9 37.524ZM43.284 37.632C43.284 39.192 42.78 40.404 41.772 41.268C40.788 42.132 39.552 42.564 38.064 42.564C36.576 42.564 35.328 42.132 34.32 41.268C33.336 40.404 32.844 39.192 32.844 37.632V34.068C32.844 32.508 33.336 31.296 34.32 30.432C35.328 29.568 36.576 29.136 38.064 29.136C39.552 29.136 40.788 29.568 41.772 30.432C42.78 31.296 43.284 32.508 43.284 34.068V37.632ZM37.812 16.716L25.68 42.348H22.008L34.14 16.716H37.812Z" fill="white"/>
</svg>
